name N:\Shared_Data\HIL\Data Collection\CoPD-X-MoreData\processed\iteration012\grf0012.mot
datacolumns 19
datarows 108
range 2325.477812 2325.656136
endheader
time	ground_force1_vx	ground_force1_vy	ground_force1_vz	ground_force1_px	ground_force1_py	ground_force1_pz	ground_force2_vx	ground_force2_vy	ground_force2_vz	ground_force2_px	ground_force2_py	ground_force2_pz	ground_torque1_x	ground_torque1_y	ground_torque1_z	ground_torque2_x	ground_torque2_y	ground_torque2_z	
2325.477812	71.72562896	782.0452993	59.1682058	7.834041267	0	0.1640151398	0.974451336	4.287212804	0.7877183343	7.590782209	0	-0.02985258528	0	-1.71301016	0	0	-0.1718508933	0	
2325.479471	70.89521583	783.6445763	59.1901739	7.834337194	0	0.1640127884	0.8852101829	2.536282904	0.5554220332	7.592120213	0	-0.02985258528	0	-1.599153864	0	0	-0.1063611575	0	
2325.481141	70.05456216	785.116664	59.21193358	7.834627843	0	0.1640118832	0	0	0	0	0	0	0	-1.481898066	0	0	0	0	
2325.482811	69.20401872	786.4599988	59.23358923	7.834912004	0	0.1640125023	0	0	0	0	0	0	0	-1.361262354	0	0	0	0	
2325.484478	68.34389874	787.673189	59.25516203	7.835188492	0	0.1640147134	0	0	0	0	0	0	0	-1.237287088	0	0	0	0	
2325.486143	67.47448141	788.7550287	59.27659332	7.835456158	0	0.1640185736	0	0	0	0	0	0	0	-1.110032657	0	0	0	0	
2325.487809	66.59601543	789.7045092	59.29774826	7.835713892	0	0.16402413	0	0	0	0	0	0	0	-0.9795786459	0	0	0	0	
2325.489471	65.70872277	790.5208302	59.31842007	7.835960631	0	0.1640314189	0	0	0	0	0	0	0	-0.84602293	0	0	0	0	
2325.491146	64.81280251	791.2034102	59.33833452	7.836195365	0	0.1640404668	0	0	0	0	0	0	0	-0.7094806866	0	0	0	0	
2325.492811	63.90843474	791.751895	59.35715481	7.836417144	0	0.16405129	0	0	0	0	0	0	0	-0.570083338	0	0	0	0	
2325.494473	62.99578449	792.1661655	59.37448681	7.836625081	0	0.164063895	0	0	0	0	0	0	0	-0.4279774243	0	0	0	0	
2325.496143	62.07500568	792.4463447	59.38988442	7.836818357	0	0.1640782786	0	0	0	0	0	0	0	-0.2833234161	0	0	0	0	
2325.497822	61.14624503	792.5928028	59.40285532	7.836996228	0	0.1640944285	0	0	0	0	0	0	0	-0.1362944717	0	0	0	0	
2325.499477	60.20964591	792.6061614	59.4128668	7.837158027	0	0.164112323	0	0	0	0	0	0	0	0.01292484936	0	0	0	0	
2325.501146	59.26535211	792.4872972	59.41935176	7.83730317	0	0.1641319316	0	0	0	0	0	0	0	0.164139909	0	0	0	0	
2325.502813	58.31351153	792.2373431	59.42171483	7.837431156	0	0.1641532154	0	0	0	0	0	0	0	0.3171473364	0	0	0	0	
2325.504477	57.35427966	791.8576895	59.41933852	7.83754157	0	0.1641761273	0	0	0	0	0	0	0	0.4717363863	0	0	0	0	
2325.506141	56.38782294	791.3499834	59.41158942	7.83763409	0	0.1642006123	0	0	0	0	0	0	0	0.6276902971	0	0	0	0	
2325.507809	55.414322	790.7161273	59.39782433	7.837708483	0	0.1642266078	0	0	0	0	0	0	0	0.7847876358	0	0	0	0	
2325.509478	54.43397456	789.9582764	59.37739641	7.837764611	0	0.1642540445	0	0	0	0	0	0	0	0.9428036191	0	0	0	0	
2325.511143	53.44699823	789.0788347	59.34966116	7.837802426	0	0.1642828459	0	0	0	0	0	0	0	1.101511398	0	0	0	0	
2325.512804	52.45363301	788.0804501	59.31398226	7.837821978	0	0.1643129297	0	0	0	0	0	0	0	1.260683293	0	0	0	0	
2325.514471	51.45414354	786.9660093	59.26973729	7.83782341	0	0.1643442078	0	0	0	0	0	0	0	1.420091977	0	0	0	0	
2325.516139	50.44882108	785.7386304	59.21632322	7.837806958	0	0.1643765864	0	0	0	0	0	0	0	1.579511593	0	0	0	0	
2325.517805	49.43798523	784.4016555	59.15316164	7.837772949	0	0.1644099673	0	0	0	0	0	0	0	1.738718793	0	0	0	0	
2325.519478	48.42198531	782.9586426	59.07970378	7.837721804	0	0.1644442478	0	0	0	0	0	0	0	1.897493714	0	0	0	0	
2325.521142	47.40120144	781.413356	58.99543516	7.837654031	0	0.1644793214	0	0	0	0	0	0	0	2.05562086	0	0	0	0	
2325.522812	46.37604539	779.7697566	58.89988003	7.837570224	0	0.1645150781	0	0	0	0	0	0	0	2.212889911	0	0	0	0	
2325.524477	45.34696095	778.0319909	58.79260534	7.837471062	0	0.1645514056	0	0	0	0	0	0	0	2.369096447	0	0	0	0	
2325.526141	44.31442413	776.2043803	58.6732245	7.837357302	0	0.1645881891	0	0	0	0	0	0	0	2.524042588	0	0	0	0	
2325.52781	43.27894296	774.2914089	58.54140066	7.837229779	0	0.1646253121	0	0	0	0	0	0	0	2.677537552	0	0	0	0	
2325.529472	42.24105696	772.2977115	58.39684964	7.837089399	0	0.1646626572	0	0	0	0	0	0	0	2.829398135	0	0	0	0	
2325.531138	41.20133637	770.2280606	58.23934249	7.836937136	0	0.1647001063	0	0	0	0	0	0	0	2.979449116	0	0	0	0	
2325.532807	40.16038096	768.0873534	58.06870761	7.836774025	0	0.1647375414	0	0	0	0	0	0	0	3.127523581	0	0	0	0	
2325.534476	39.11881862	765.8805987	57.88483247	7.836601159	0	0.1647748452	0	0	0	0	0	0	0	3.273463186	0	0	0	0	
2325.536138	38.07730367	763.6129029	57.68766493	7.83641968	0	0.1648119014	0	0	0	0	0	0	0	3.417118348	0	0	0	0	
2325.537812	37.03651484	761.2894563	57.47721414	7.836230778	0	0.1648485955	0	0	0	0	0	0	0	3.558348367	0	0	0	0	
2325.53947	35.99715303	758.9155191	57.25355101	7.836035679	0	0.164884815	0	0	0	0	0	0	0	3.697021499	0	0	0	0	
2325.541144	34.95993887	756.4964078	57.0168083	7.835835639	0	0.1649204506	0	0	0	0	0	0	0	3.833014968	0	0	0	0	
2325.542811	33.92561	754.0374806	56.76718028	7.835631943	0	0.164955396	0	0	0	0	0	0	0	3.966214927	0	0	0	0	
2325.54447	32.8949182	751.5441237	56.50492201	7.835425889	0	0.1649895488	0	0	0	0	0	0	0	4.096516371	0	0	0	0	
2325.54614	31.8686264	749.0217375	56.23034825	7.835218788	0	0.165022811	0	0	0	0	0	0	0	4.223823014	0	0	0	0	
2325.547811	30.84750541	746.4757228	55.94383192	7.835011953	0	0.1650550891	0	0	0	0	0	0	0	4.34804713	0	0	0	0	
2325.549473	29.8323307	743.9114673	55.64580234	7.834806691	0	0.1650862951	0	0	0	0	0	0	0	4.46910936	0	0	0	0	
2325.551137	28.82387899	741.3343322	55.33674298	7.834604297	0	0.1651163465	0	0	0	0	0	0	0	4.586938506	0	0	0	0	
2325.552812	27.82292477	738.7496394	55.017189	7.834406047	0	0.165145167	0	0	0	0	0	0	0	4.701471301	0	0	0	0	
2325.554475	26.8302368	736.1626589	54.6877244	7.834213189	0	0.1651726865	0	0	0	0	0	0	0	4.812652185	0	0	0	0	
2325.556145	25.84657462	733.5785959	54.34897896	7.834026935	0	0.1651988418	0	0	0	0	0	0	0	4.920433069	0	0	0	0	
2325.557806	24.87268501	731.0025796	54.00162486	7.833848458	0	0.1652235765	0	0	0	0	0	0	0	5.024773118	0	0	0	0	
2325.559476	23.90929847	728.4396513	53.64637315	7.83367888	0	0.1652468416	0	0	0	0	0	0	0	5.125638548	0	0	0	0	
2325.561142	22.95712582	725.8947534	53.28396989	7.83351927	0	0.1652685954	0	0	0	0	0	0	0	5.223002443	0	0	0	0	
2325.562812	22.01685477	723.3727189	52.91519222	7.833370632	0	0.1652888039	0	0	0	0	0	0	0	5.316844603	0	0	0	0	
2325.564472	21.08914668	720.8782611	52.54084424	7.833233907	0	0.1653074407	0	0	0	0	0	0	0	5.40715143	0	0	0	0	
2325.566141	20.17463331	718.4159645	52.16175278	7.833109962	0	0.165324487	0	0	0	0	0	0	0	5.493915844	0	0	0	0	
2325.567811	19.27391383	715.9902754	51.77876302	7.832999587	0	0.1653399318	0	0	0	0	0	0	0	5.577137241	0	0	0	0	
2325.56948	18.38755186	713.6054935	51.39273414	7.832903492	0	0.1653537717	0	0	0	0	0	0	0	5.656821495	0	0	0	0	
2325.571144	17.51607276	711.2657642	51.00453485	7.832822301	0	0.1653660106	0	0	0	0	0	0	0	5.732980984	0	0	0	0	
2325.572812	16.65996102	708.9750713	50.615039	7.832756552	0	0.1653766598	0	0	0	0	0	0	0	5.805634664	0	0	0	0	
2325.574479	15.81965795	706.7372303	50.22512113	7.832706693	0	0.1653857377	0	0	0	0	0	0	0	5.874808167	0	0	0	0	
2325.576136	14.99555947	704.5558822	49.83565213	7.832673081	0	0.1653932694	0	0	0	0	0	0	0	5.940533918	0	0	0	0	
2325.577805	14.18801422	702.4344884	49.44749495	7.832655982	0	0.1653992862	0	0	0	0	0	0	0	6.002851276	0	0	0	0	
2325.57947	13.39732185	700.3763257	49.06150043	7.832655569	0	0.1654038257	0	0	0	0	0	0	0	6.06180668	0	0	0	0	
2325.58114	12.62373159	698.3844822	48.67850327	7.832671928	0	0.1654069309	0	0	0	0	0	0	0	6.1174538	0	0	0	0	
2325.58281	11.86744102	696.4618537	48.29931811	7.832705051	0	0.1654086499	0	0	0	0	0	0	0	6.16985368	0	0	0	0	
2325.584472	11.12859519	694.6111408	47.92473584	7.832754846	0	0.1654090356	0	0	0	0	0	0	0	6.219074867	0	0	0	0	
2325.586137	10.40728592	692.8348469	47.55552003	7.832821137	0	0.1654081448	0	0	0	0	0	0	0	6.265193524	0	0	0	0	
2325.587808	9.703551421	691.1352764	47.1924037	7.832903666	0	0.1654060378	0	0	0	0	0	0	0	6.308293516	0	0	0	0	
2325.589474	9.017376108	689.5145333	46.83608613	7.833002101	0	0.165402778	0	0	0	0	0	0	0	6.348466467	0	0	0	0	
2325.591138	8.348690758	687.9745217	46.48723012	7.833116037	0	0.165398431	0	0	0	0	0	0	0	6.385811785	0	0	0	0	
2325.592807	7.697372852	686.5169449	46.14645935	7.833245003	0	0.1653930643	0	0	0	0	0	0	0	6.420436649	0	0	0	0	
2325.594479	7.063247194	685.1433071	45.81435608	7.833388469	0	0.1653867467	0	0	0	0	0	0	0	6.452455967	0	0	0	0	
2325.596143	6.446086751	683.8549142	45.49145915	7.833545849	0	0.1653795475	0	0	0	0	0	0	0	6.481992293	0	0	0	0	
2325.597808	5.845613721	682.6528756	45.17826216	7.833716512	0	0.1653715361	0	0	0	0	0	0	0	6.509175708	0	0	0	0	
2325.599472	5.261500816	681.5381072	44.8752121	7.833899784	0	0.1653627817	0	0	0	0	0	0	0	6.534143675	0	0	0	0	
2325.601143	4.693372742	680.5113336	44.58270815	7.834094959	0	0.1653533522	0	0	0	0	0	0	0	6.557040852	0	0	0	0	
2325.602809	4.140807865	679.573092	44.30110082	7.834301302	0	0.1653433143	0	0	0	0	0	0	0	6.578018884	0	0	0	0	
2325.604471	3.603340064	678.7237356	44.03069141	7.834518062	0	0.1653327327	0	0	0	0	0	0	0	6.59723616	0	0	0	0	
2325.606145	3.080460732	677.9634385	43.77173177	7.834744474	0	0.1653216701	0	0	0	0	0	0	0	6.614857546	0	0	0	0	
2325.607805	2.571620938	677.2921996	43.52442431	7.834979767	0	0.1653101863	0	0	0	0	0	0	0	6.631054096	0	0	0	0	
2325.609475	2.076233725	676.7098484	43.28892238	7.835223172	0	0.1652983382	0	0	0	0	0	0	0	6.646002728	0	0	0	0	
2325.611139	1.593676533	676.21605	43.06533088	7.835473929	0	0.1652861797	0	0	0	0	0	0	0	6.659885883	0	0	0	0	
2325.612808	1.123293743	675.8103111	42.85370715	7.835731293	0	0.1652737612	0	0	0	0	0	0	0	6.672891158	0	0	0	0	
2325.614476	0.664399317	675.4919858	42.65406219	7.835994537	0	0.1652611295	0	0	0	0	0	0	0	6.685210908	0	0	0	0	
2325.616142	0.2162795345	675.2602821	42.46636205	7.836262961	0	0.1652483278	0	0	0	0	0	0	0	6.697041829	0	0	0	0	
2325.617804	-0.2218041894	675.1142685	42.29052957	7.836535896	0	0.1652353956	0	0	0	0	0	0	0	6.708584503	0	0	0	0	
2325.61947	-0.6506124199	675.0528806	42.12644625	7.83681271	0	0.1652223689	0	0	0	0	0	0	0	6.720042931	0	0	0	0	
2325.621136	-1.07092476	675.0749283	41.97395439	7.837092808	0	0.1652092797	0	0	0	0	0	0	0	6.731624019	0	0	0	0	
2325.622808	-1.483536866	675.1791026	41.83285947	7.837375638	0	0.1651961567	0	0	0	0	0	0	0	6.743537052	0	0	0	0	
2325.624479	-1.889257425	675.3639834	41.70293257	7.837660695	0	0.1651830253	0	0	0	0	0	0	0	6.755993135	0	0	0	0	
2325.626144	-2.288905125	675.628046	41.58391312	7.837947521	0	0.1651699075	0	0	0	0	0	0	0	6.769204605	0	0	0	0	
2325.627803	-2.683305607	675.9696695	41.47551167	7.838235708	0	0.1651568225	0	0	0	0	0	0	0	6.783384428	0	0	0	0	
2325.629476	-3.073288432	676.3871434	41.37741281	7.838524898	0	0.1651437867	0	0	0	0	0	0	0	6.798745566	0	0	0	0	
2325.631137	-3.459684066	676.8786757	41.2892782	7.838814784	0	0.1651308143	0	0	0	0	0	0	0	6.815500335	0	0	0	0	
2325.632806	-3.843320901	677.4424	41.21074967	7.839105113	0	0.1651179172	0	0	0	0	0	0	0	6.833859744	0	0	0	0	
2325.634472	-4.225022317	678.0763834	41.14145232	7.839395678	0	0.1651051058	0	0	0	0	0	0	0	6.854032823	0	0	0	0	
2325.636142	-4.605603803	678.7786332	41.08099774	7.839686326	0	0.165092389	0	0	0	0	0	0	0	6.876225949	0	0	0	0	
2325.637805	-4.985870149	679.5471051	41.02898713	7.83997695	0	0.1650797748	0	0	0	0	0	0	0	6.900642166	0	0	0	0	
2325.639469	-5.366612707	680.3797098	40.98501451	7.840267489	0	0.1650672706	0	0	0	0	0	0	0	6.927480502	0	0	0	0	
2325.641137	-5.748606748	681.2743204	40.94866978	7.840557929	0	0.1650548835	0	0	0	0	0	0	0	6.956935299	0	0	0	0	
2325.642803	-6.132608904	682.2287794	40.91954182	7.840848293	0	0.1650426211	0	0	0	0	0	0	0	6.989195538	0	0	0	0	
2325.644478	-6.519354713	683.2409057	40.89722148	7.841138647	0	0.1650304912	0	0	0	0	0	0	0	7.024444182	0	0	0	0	
2325.646141	-6.909556271	684.3085011	40.88130441	7.841429091	0	0.1650185027	0	0	0	0	0	0	0	7.06285752	0	0	0	0	
2325.647812	-7.303899988	685.4293567	40.87139389	7.841719756	0	0.1650066659	0	0	0	0	0	0	0	7.104604529	0	0	0	0	
2325.649473	-7.703044468	686.6012599	40.86710348	7.842010805	0	0.1649949927	0	0	0	0	0	0	0	7.149846244	0	0	0	0	
2325.651141	-8.10761849	687.8219998	40.86805946	7.842302425	0	0.1649834968	0	0	0	0	0	0	0	7.19873514	0	0	0	0	
2325.652813	-8.518219125	689.0893736	40.87390325	7.842594826	0	0.1649721944	0	0	0	0	0	0	0	7.251414532	0	0	0	0	
2325.654476	-8.935409963	690.4011918	40.88429354	7.842888235	0	0.164961104	0	0	0	0	0	0	0	7.308017984	0	0	0	0	
2325.656136	-9.359719472	691.7552844	40.89890829	7.843182896	0	0.164950247	0	0	0	0	0	0	0	7.368668738	0	0	0	0	
